ffmpeg started on 2025-06-28 at 18:06:09
Report written to "D:\Convert\FFMetrics\reports\ssim_report-6.txt"
Log level: 32
Command line:
ffmpeg -hide_banner -nostdin -i "G:\\\xc0\xed\xe8\xec\xe5\\\xce\xed\xe3\xee\xe8\xed\xe3\xe8\\!_37_\xc7\xe8\xec\xe0_2025\\JamClub\\100 \xe4\xe5\xe2\xf3\xf8\xe5\xea, \xea\xee\xf2\xee\xf0\xfb\xe5 \xee\xf7\xe5\xed\xfc-\xee\xf7\xe5\xed\xfc-\xee\xf7\xe5\xed\xfc-\xee\xf7\xe5\xed\xfc-\xee\xf7\xe5\xed\xfc \xf1\xe8\xeb\xfc\xed\xee \xf2\xe5\xe1\xff \xeb\xfe\xe1\xff\xf2\\\xd2\xc2-2\\JamClub_The_100_Girlfriends_Who_Really_Really_Really_Really_REALLY_2_07_HEVC.mkv" -i "G:\\\xc0\xed\xe8\xec\xe5\\\xce\xed\xe3\xee\xe8\xed\xe3\xe8\\!_37_\xc7\xe8\xec\xe0_2025\\JamClub\\100 \xe4\xe5\xe2\xf3\xf8\xe5\xea, \xea\xee\xf2\xee\xf0\xfb\xe5 \xee\xf7\xe5\xed\xfc-\xee\xf7\xe5\xed\xfc-\xee\xf7\xe5\xed\xfc-\xee\xf7\xe5\xed\xfc-\xee\xf7\xe5\xed\xfc \xf1\xe8\xeb\xfc\xed\xee \xf2\xe5\xe1\xff \xeb\xfe\xe1\xff\xf2\\\xd2\xc2-2\\JamClub_The_100_Girlfriends_Who_Really_Really_Really_Really_REALLY_2_07.mp4" -lavfi "[0:v]settb=AVTB,setpts=PTS-STARTPTS,format=pix_fmts=yuv420p10,fps=24000/1001,scale=1920:1080:flags=bicubic[main];[1:v]settb=AVTB,setpts=PTS-STARTPTS,format=pix_fmts=yuv420p,fps=24000/1001,scale=1920:1080:flags=bicubic[ref];[main][ref]ssim=eof_action=endall:stats_file='D\\:/Convert/FFMetrics/logs/ssim_logfile-6.txt'" -f null -
Input #0, matroska,webm, from 'G:\Аниме\Онгоинги\!_37_Зима_2025\JamClub\100 девушек, которые очень-очень-очень-очень-очень сильно тебя любят\ТВ-2\JamClub_The_100_Girlfriends_Who_Really_Really_Really_Really_REALLY_2_07_HEVC.mkv':
  Metadata:
    COMPATIBLE_BRANDS: isomiso2avc1mp41
    MAJOR_BRAND     : isom
    MINOR_VERSION   : 512
    ENCODER         : Lavf61.7.100
  Duration: 00:24:12.27, start: -0.001000, bitrate: 1987 kb/s
  Stream #0:0: Video: hevc (Main 10), yuv420p10le(tv, bt709, progressive), 1920x1080 [SAR 1:1 DAR 16:9], 23.98 fps, 23.98 tbr, 1k tbn (default)
      Metadata:
        HANDLER_NAME    : VideoHandler
        VENDOR_ID       : [0][0][0][0]
        ENCODER         : Lavc61.19.100 libx265
        BPS             : 1790353
        DURATION        : 00:24:12.200708333
        NUMBER_OF_FRAMES: 34818
        NUMBER_OF_BYTES : 324993875
        _STATISTICS_WRITING_APP: mkvpropedit v66.0.0 ('Josie') 64-bit
        _STATISTICS_WRITING_DATE_UTC: 2025-06-28 13:39:10
        _STATISTICS_TAGS: BPS DURATION NUMBER_OF_FRAMES NUMBER_OF_BYTES
  Stream #0:1(eng): Audio: aac (LC), 48000 Hz, stereo, fltp (default)
      Metadata:
        HANDLER_NAME    : SoundHandler
        VENDOR_ID       : [0][0][0][0]
        ENCODER         : Lavc61.19.100 aac
        BPS             : 192918
        DURATION        : 00:24:12.227000000
        NUMBER_OF_FRAMES: 68074
        NUMBER_OF_BYTES : 35020218
        _STATISTICS_WRITING_APP: mkvpropedit v66.0.0 ('Josie') 64-bit
        _STATISTICS_WRITING_DATE_UTC: 2025-06-28 13:39:10
        _STATISTICS_TAGS: BPS DURATION NUMBER_OF_FRAMES NUMBER_OF_BYTES
Input #1, mov,mp4,m4a,3gp,3g2,mj2, from 'G:\Аниме\Онгоинги\!_37_Зима_2025\JamClub\100 девушек, которые очень-очень-очень-очень-очень сильно тебя любят\ТВ-2\JamClub_The_100_Girlfriends_Who_Really_Really_Really_Really_REALLY_2_07.mp4':
  Metadata:
    major_brand     : isom
    minor_version   : 512
    compatible_brands: isomiso2avc1mp41
    encoder         : Lavf60.16.100
  Duration: 00:24:12.25, start: 0.000000, bitrate: 4855 kb/s
  Stream #1:0[0x1](und): Video: h264 (High) (avc1 / 0x31637661), yuv420p(progressive), 1920x1080 [SAR 1:1 DAR 16:9], 4657 kb/s, 23.98 fps, 23.98 tbr, 90k tbn (default)
      Metadata:
        handler_name    : VideoHandler
        vendor_id       : [0][0][0][0]
  Stream #1:1[0x2](eng): Audio: aac (LC) (mp4a / 0x6134706D), 48000 Hz, stereo, fltp, 191 kb/s (default)
      Metadata:
        handler_name    : SoundHandler
        vendor_id       : [0][0][0][0]
Stream mapping:
  Stream #0:0 (hevc) -> settb:default
  Stream #1:0 (h264) -> settb:default
  ssim:default -> Stream #0:0 (wrapped_avframe)
  Stream #0:1 -> #0:1 (aac (native) -> pcm_s16le (native))
Output #0, null, to 'pipe:':
  Metadata:
    COMPATIBLE_BRANDS: isomiso2avc1mp41
    MAJOR_BRAND     : isom
    MINOR_VERSION   : 512
    encoder         : Lavf61.7.100
  Stream #0:0: Video: wrapped_avframe, yuv420p10le(tv, bt709, progressive), 1920x1080 [SAR 1:1 DAR 16:9], q=2-31, 200 kb/s, 23.98 fps, 23.98 tbn
      Metadata:
        encoder         : Lavc61.19.100 wrapped_avframe
  Stream #0:1(eng): Audio: pcm_s16le, 48000 Hz, stereo, s16, 1536 kb/s (default)
      Metadata:
        HANDLER_NAME    : SoundHandler
        VENDOR_ID       : [0][0][0][0]
        _STATISTICS_TAGS: BPS DURATION NUMBER_OF_FRAMES NUMBER_OF_BYTES
        BPS             : 192918
        DURATION        : 00:24:12.227000000
        NUMBER_OF_FRAMES: 68074
        NUMBER_OF_BYTES : 35020218
        _STATISTICS_WRITING_APP: mkvpropedit v66.0.0 ('Josie') 64-bit
        _STATISTICS_WRITING_DATE_UTC: 2025-06-28 13:39:10
        encoder         : Lavc61.19.100 pcm_s16le
frame=  113 fps=0.0 q=-0.0 size=N/A time=00:00:04.71 bitrate=N/A speed=9.17x    frame=  274 fps=264 q=-0.0 size=N/A time=00:00:11.42 bitrate=N/A speed=  11x    frame=  472 fps=305 q=-0.0 size=N/A time=00:00:19.68 bitrate=N/A speed=12.7x    frame=  650 fps=313 q=-0.0 size=N/A time=00:00:27.11 bitrate=N/A speed=13.1x    frame=  862 fps=333 q=-0.0 size=N/A time=00:00:35.95 bitrate=N/A speed=13.9x    frame= 1058 fps=342 q=-0.0 size=N/A time=00:00:44.12 bitrate=N/A speed=14.2x    frame= 1277 fps=354 q=-0.0 size=N/A time=00:00:53.26 bitrate=N/A speed=14.8x    frame= 1498 fps=362 q=-0.0 size=N/A time=00:01:02.47 bitrate=N/A speed=15.1x    frame= 1700 fps=366 q=-0.0 size=N/A time=00:01:10.90 bitrate=N/A speed=15.3x    frame= 1935 fps=375 q=-0.0 size=N/A time=00:01:20.70 bitrate=N/A speed=15.7x    frame= 2155 fps=379 q=-0.0 size=N/A time=00:01:29.88 bitrate=N/A speed=15.8x    frame= 2362 fps=381 q=-0.0 size=N/A time=00:01:38.51 bitrate=N/A speed=15.9x    frame= 2594 fps=387 q=-0.0 size=N/A time=00:01:48.19 bitrate=N/A speed=16.1x    frame= 2793 fps=386 q=-0.0 size=N/A time=00:01:56.49 bitrate=N/A speed=16.1x    frame= 3021 fps=390 q=-0.0 size=N/A time=00:02:06.00 bitrate=N/A speed=16.3x    frame= 3206 fps=389 q=-0.0 size=N/A time=00:02:13.71 bitrate=N/A speed=16.2x    frame= 3373 fps=384 q=-0.0 size=N/A time=00:02:20.68 bitrate=N/A speed=  16x    frame= 3560 fps=383 q=-0.0 size=N/A time=00:02:28.48 bitrate=N/A speed=  16x    frame= 3720 fps=380 q=-0.0 size=N/A time=00:02:35.15 bitrate=N/A speed=15.8x    frame= 3936 fps=381 q=-0.0 size=N/A time=00:02:44.16 bitrate=N/A speed=15.9x    frame= 4106 fps=379 q=-0.0 size=N/A time=00:02:51.25 bitrate=N/A speed=15.8x    frame= 4302 fps=379 q=-0.0 size=N/A time=00:02:59.42 bitrate=N/A speed=15.8x    frame= 4494 fps=379 q=-0.0 size=N/A time=00:03:07.43 bitrate=N/A speed=15.8x    frame= 4705 fps=380 q=-0.0 size=N/A time=00:03:16.23 bitrate=N/A speed=15.8x    frame= 4891 fps=379 q=-0.0 size=N/A time=00:03:23.99 bitrate=N/A speed=15.8x    frame= 5124 fps=382 q=-0.0 size=N/A time=00:03:33.71 bitrate=N/A speed=15.9x    frame= 5316 fps=382 q=-0.0 size=N/A time=00:03:41.72 bitrate=N/A speed=15.9x    frame= 5531 fps=383 q=-0.0 size=N/A time=00:03:50.68 bitrate=N/A speed=  16x    frame= 5761 fps=385 q=-0.0 size=N/A time=00:04:00.28 bitrate=N/A speed=16.1x    frame= 5961 fps=385 q=-0.0 size=N/A time=00:04:08.62 bitrate=N/A speed=16.1x    frame= 6197 fps=388 q=-0.0 size=N/A time=00:04:18.46 bitrate=N/A speed=16.2x    frame= 6458 fps=391 q=-0.0 size=N/A time=00:04:29.35 bitrate=N/A speed=16.3x    frame= 6732 fps=395 q=-0.0 size=N/A time=00:04:40.78 bitrate=N/A speed=16.5x    frame= 6971 fps=398 q=-0.0 size=N/A time=00:04:50.74 bitrate=N/A speed=16.6x    frame= 7258 fps=402 q=-0.0 size=N/A time=00:05:02.71 bitrate=N/A speed=16.8x    frame= 7529 fps=405 q=-0.0 size=N/A time=00:05:14.02 bitrate=N/A speed=16.9x    frame= 7786 fps=408 q=-0.0 size=N/A time=00:05:24.74 bitrate=N/A speed=  17x    frame= 8043 fps=410 q=-0.0 size=N/A time=00:05:35.46 bitrate=N/A speed=17.1x    frame= 8286 fps=412 q=-0.0 size=N/A time=00:05:45.59 bitrate=N/A speed=17.2x    frame= 8536 fps=414 q=-0.0 size=N/A time=00:05:56.02 bitrate=N/A speed=17.3x    frame= 8761 fps=414 q=-0.0 size=N/A time=00:06:05.40 bitrate=N/A speed=17.3x    frame= 8958 fps=413 q=-0.0 size=N/A time=00:06:13.62 bitrate=N/A speed=17.2x    frame= 9193 fps=415 q=-0.0 size=N/A time=00:06:23.42 bitrate=N/A speed=17.3x    frame= 9427 fps=415 q=-0.0 size=N/A time=00:06:33.18 bitrate=N/A speed=17.3x    frame= 9616 fps=414 q=-0.0 size=N/A time=00:06:41.06 bitrate=N/A speed=17.3x    frame= 9738 fps=411 q=-0.0 size=N/A time=00:06:46.15 bitrate=N/A speed=17.1x    frame= 9915 fps=409 q=-0.0 size=N/A time=00:06:53.53 bitrate=N/A speed=17.1x    frame=10113 fps=409 q=-0.0 size=N/A time=00:07:01.79 bitrate=N/A speed=  17x    frame=10274 fps=407 q=-0.0 size=N/A time=00:07:08.51 bitrate=N/A speed=  17x    frame=10460 fps=406 q=-0.0 size=N/A time=00:07:16.26 bitrate=N/A speed=16.9x    frame=10633 fps=404 q=-0.0 size=N/A time=00:07:23.48 bitrate=N/A speed=16.9x    frame=10802 fps=403 q=-0.0 size=N/A time=00:07:30.53 bitrate=N/A speed=16.8x    frame=10995 fps=402 q=-0.0 size=N/A time=00:07:38.58 bitrate=N/A speed=16.8x    frame=11172 fps=401 q=-0.0 size=N/A time=00:07:45.96 bitrate=N/A speed=16.7x    frame=11363 fps=401 q=-0.0 size=N/A time=00:07:53.93 bitrate=N/A speed=16.7x    frame=11554 fps=400 q=-0.0 size=N/A time=00:08:01.89 bitrate=N/A speed=16.7x    frame=11782 fps=401 q=-0.0 size=N/A time=00:08:11.40 bitrate=N/A speed=16.7x    frame=11984 fps=401 q=-0.0 size=N/A time=00:08:19.83 bitrate=N/A speed=16.7x    frame=12118 fps=398 q=-0.0 size=N/A time=00:08:25.42 bitrate=N/A speed=16.6x    frame=12228 fps=395 q=-0.0 size=N/A time=00:08:30.00 bitrate=N/A speed=16.5x    frame=12441 fps=395 q=-0.0 size=N/A time=00:08:38.89 bitrate=N/A speed=16.5x    frame=12622 fps=394 q=-0.0 size=N/A time=00:08:46.44 bitrate=N/A speed=16.5x    frame=12833 fps=395 q=-0.0 size=N/A time=00:08:55.24 bitrate=N/A speed=16.5x    frame=13020 fps=394 q=-0.0 size=N/A time=00:09:03.04 bitrate=N/A speed=16.4x    frame=13208 fps=394 q=-0.0 size=N/A time=00:09:10.88 bitrate=N/A speed=16.4x    frame=13439 fps=395 q=-0.0 size=N/A time=00:09:20.51 bitrate=N/A speed=16.5x    frame=13618 fps=394 q=-0.0 size=N/A time=00:09:27.98 bitrate=N/A speed=16.4x    frame=13837 fps=394 q=-0.0 size=N/A time=00:09:37.11 bitrate=N/A speed=16.4x    frame=14043 fps=394 q=-0.0 size=N/A time=00:09:45.71 bitrate=N/A speed=16.5x    frame=14258 fps=395 q=-0.0 size=N/A time=00:09:54.67 bitrate=N/A speed=16.5x    frame=14458 fps=395 q=-0.0 size=N/A time=00:10:03.01 bitrate=N/A speed=16.5x    frame=14613 fps=393 q=-0.0 size=N/A time=00:10:09.48 bitrate=N/A speed=16.4x    frame=14759 fps=392 q=-0.0 size=N/A time=00:10:15.57 bitrate=N/A speed=16.3x    frame=14958 fps=392 q=-0.0 size=N/A time=00:10:23.87 bitrate=N/A speed=16.3x    frame=15162 fps=392 q=-0.0 size=N/A time=00:10:32.38 bitrate=N/A speed=16.3x    frame=15327 fps=391 q=-0.0 size=N/A time=00:10:39.26 bitrate=N/A speed=16.3x    frame=15546 fps=391 q=-0.0 size=N/A time=00:10:48.43 bitrate=N/A speed=16.3x    frame=15797 fps=393 q=-0.0 size=N/A time=00:10:58.86 bitrate=N/A speed=16.4x    frame=16014 fps=393 q=-0.0 size=N/A time=00:11:07.91 bitrate=N/A speed=16.4x    frame=16175 fps=392 q=-0.0 size=N/A time=00:11:14.63 bitrate=N/A speed=16.3x    frame=16343 fps=391 q=-0.0 size=N/A time=00:11:21.63 bitrate=N/A speed=16.3x    frame=16584 fps=392 q=-0.0 size=N/A time=00:11:31.69 bitrate=N/A speed=16.4x    frame=16831 fps=393 q=-0.0 size=N/A time=00:11:41.99 bitrate=N/A speed=16.4x    frame=16981 fps=392 q=-0.0 size=N/A time=00:11:48.24 bitrate=N/A speed=16.3x    frame=17113 fps=390 q=-0.0 size=N/A time=00:11:53.75 bitrate=N/A speed=16.3x    frame=17310 fps=390 q=-0.0 size=N/A time=00:12:01.97 bitrate=N/A speed=16.3x    frame=17552 fps=391 q=-0.0 size=N/A time=00:12:12.06 bitrate=N/A speed=16.3x    frame=17787 fps=392 q=-0.0 size=N/A time=00:12:21.86 bitrate=N/A speed=16.3x    frame=18027 fps=393 q=-0.0 size=N/A time=00:12:31.87 bitrate=N/A speed=16.4x    frame=18283 fps=394 q=-0.0 size=N/A time=00:12:42.55 bitrate=N/A speed=16.4x    frame=18483 fps=394 q=-0.0 size=N/A time=00:12:50.89 bitrate=N/A speed=16.4x    frame=18717 fps=394 q=-0.0 size=N/A time=00:13:00.65 bitrate=N/A speed=16.5x    frame=18964 fps=395 q=-0.0 size=N/A time=00:13:10.95 bitrate=N/A speed=16.5x    frame=19184 fps=396 q=-0.0 size=N/A time=00:13:20.13 bitrate=N/A speed=16.5x    frame=19391 fps=396 q=-0.0 size=N/A time=00:13:28.76 bitrate=N/A speed=16.5x    frame=19667 fps=397 q=-0.0 size=N/A time=00:13:40.27 bitrate=N/A speed=16.6x    frame=19917 fps=398 q=-0.0 size=N/A time=00:13:50.70 bitrate=N/A speed=16.6x    frame=20165 fps=399 q=-0.0 size=N/A time=00:14:01.04 bitrate=N/A speed=16.6x    frame=20397 fps=399 q=-0.0 size=N/A time=00:14:10.72 bitrate=N/A speed=16.7x    frame=20619 fps=400 q=-0.0 size=N/A time=00:14:19.98 bitrate=N/A speed=16.7x    frame=20841 fps=400 q=-0.0 size=N/A time=00:14:29.24 bitrate=N/A speed=16.7x    frame=21090 fps=401 q=-0.0 size=N/A time=00:14:39.62 bitrate=N/A speed=16.7x    frame=21324 fps=401 q=-0.0 size=N/A time=00:14:49.38 bitrate=N/A speed=16.7x    frame=21565 fps=402 q=-0.0 size=N/A time=00:14:59.44 bitrate=N/A speed=16.8x    frame=21814 fps=403 q=-0.0 size=N/A time=00:15:09.82 bitrate=N/A speed=16.8x    frame=22058 fps=403 q=-0.0 size=N/A time=00:15:20.00 bitrate=N/A speed=16.8x    frame=22305 fps=404 q=-0.0 size=N/A time=00:15:30.30 bitrate=N/A speed=16.9x    frame=22552 fps=405 q=-0.0 size=N/A time=00:15:40.60 bitrate=N/A speed=16.9x    frame=22808 fps=406 q=-0.0 size=N/A time=00:15:51.28 bitrate=N/A speed=16.9x    frame=23068 fps=407 q=-0.0 size=N/A time=00:16:02.12 bitrate=N/A speed=  17x    frame=23331 fps=407 q=-0.0 size=N/A time=00:16:13.09 bitrate=N/A speed=  17x    frame=23575 fps=408 q=-0.0 size=N/A time=00:16:23.27 bitrate=N/A speed=  17x    frame=23835 fps=409 q=-0.0 size=N/A time=00:16:34.11 bitrate=N/A speed=17.1x    frame=24113 fps=410 q=-0.0 size=N/A time=00:16:45.71 bitrate=N/A speed=17.1x    frame=24316 fps=410 q=-0.0 size=N/A time=00:16:54.17 bitrate=N/A speed=17.1x    frame=24556 fps=410 q=-0.0 size=N/A time=00:17:04.18 bitrate=N/A speed=17.1x    frame=24790 fps=411 q=-0.0 size=N/A time=00:17:13.94 bitrate=N/A speed=17.1x    frame=24998 fps=411 q=-0.0 size=N/A time=00:17:22.62 bitrate=N/A speed=17.1x    frame=25239 fps=411 q=-0.0 size=N/A time=00:17:32.67 bitrate=N/A speed=17.2x    frame=25478 fps=412 q=-0.0 size=N/A time=00:17:42.64 bitrate=N/A speed=17.2x    frame=25716 fps=412 q=-0.0 size=N/A time=00:17:52.57 bitrate=N/A speed=17.2x    frame=25936 fps=412 q=-0.0 size=N/A time=00:18:01.74 bitrate=N/A speed=17.2x    frame=26179 fps=413 q=-0.0 size=N/A time=00:18:11.88 bitrate=N/A speed=17.2x    frame=26352 fps=412 q=-0.0 size=N/A time=00:18:19.09 bitrate=N/A speed=17.2x    frame=26617 fps=413 q=-0.0 size=N/A time=00:18:30.15 bitrate=N/A speed=17.2x    frame=26888 fps=414 q=-0.0 size=N/A time=00:18:41.45 bitrate=N/A speed=17.3x    frame=27066 fps=413 q=-0.0 size=N/A time=00:18:48.87 bitrate=N/A speed=17.2x    frame=27280 fps=413 q=-0.0 size=N/A time=00:18:57.80 bitrate=N/A speed=17.2x    frame=27542 fps=414 q=-0.0 size=N/A time=00:19:08.73 bitrate=N/A speed=17.3x    frame=27784 fps=414 q=-0.0 size=N/A time=00:19:18.82 bitrate=N/A speed=17.3x    frame=28019 fps=415 q=-0.0 size=N/A time=00:19:28.62 bitrate=N/A speed=17.3x    frame=28261 fps=415 q=-0.0 size=N/A time=00:19:38.71 bitrate=N/A speed=17.3x    frame=28509 fps=416 q=-0.0 size=N/A time=00:19:49.06 bitrate=N/A speed=17.3x    frame=28736 fps=416 q=-0.0 size=N/A time=00:19:58.53 bitrate=N/A speed=17.3x    frame=28971 fps=416 q=-0.0 size=N/A time=00:20:08.33 bitrate=N/A speed=17.4x    frame=29212 fps=416 q=-0.0 size=N/A time=00:20:18.38 bitrate=N/A speed=17.4x    frame=29455 fps=417 q=-0.0 size=N/A time=00:20:28.51 bitrate=N/A speed=17.4x    frame=29733 fps=418 q=-0.0 size=N/A time=00:20:40.11 bitrate=N/A speed=17.4x    frame=29955 fps=418 q=-0.0 size=N/A time=00:20:49.37 bitrate=N/A speed=17.4x    frame=30201 fps=418 q=-0.0 size=N/A time=00:20:59.63 bitrate=N/A speed=17.4x    frame=30459 fps=419 q=-0.0 size=N/A time=00:21:10.39 bitrate=N/A speed=17.5x    frame=30713 fps=419 q=-0.0 size=N/A time=00:21:20.98 bitrate=N/A speed=17.5x    frame=30958 fps=420 q=-0.0 size=N/A time=00:21:31.20 bitrate=N/A speed=17.5x    frame=31210 fps=420 q=-0.0 size=N/A time=00:21:41.71 bitrate=N/A speed=17.5x    frame=31477 fps=421 q=-0.0 size=N/A time=00:21:52.85 bitrate=N/A speed=17.6x    frame=31710 fps=421 q=-0.0 size=N/A time=00:22:02.57 bitrate=N/A speed=17.6x    frame=31939 fps=421 q=-0.0 size=N/A time=00:22:12.12 bitrate=N/A speed=17.6x    frame=32138 fps=421 q=-0.0 size=N/A time=00:22:20.42 bitrate=N/A speed=17.6x    frame=32372 fps=421 q=-0.0 size=N/A time=00:22:30.18 bitrate=N/A speed=17.6x    frame=32596 fps=421 q=-0.0 size=N/A time=00:22:39.52 bitrate=N/A speed=17.6x    frame=32801 fps=421 q=-0.0 size=N/A time=00:22:48.07 bitrate=N/A speed=17.6x    frame=32967 fps=421 q=-0.0 size=N/A time=00:22:54.99 bitrate=N/A speed=17.5x    frame=33205 fps=421 q=-0.0 size=N/A time=00:23:04.92 bitrate=N/A speed=17.5x    frame=33427 fps=421 q=-0.0 size=N/A time=00:23:14.18 bitrate=N/A speed=17.6x    frame=33618 fps=421 q=-0.0 size=N/A time=00:23:22.15 bitrate=N/A speed=17.5x    frame=33836 fps=421 q=-0.0 size=N/A time=00:23:31.24 bitrate=N/A speed=17.5x    frame=34022 fps=420 q=-0.0 size=N/A time=00:23:39.00 bitrate=N/A speed=17.5x    frame=34130 fps=419 q=-0.0 size=N/A time=00:23:43.50 bitrate=N/A speed=17.5x    frame=34235 fps=417 q=-0.0 size=N/A time=00:23:47.88 bitrate=N/A speed=17.4x    frame=34342 fps=416 q=-0.0 size=N/A time=00:23:52.34 bitrate=N/A speed=17.4x    frame=34464 fps=415 q=-0.0 size=N/A time=00:23:57.43 bitrate=N/A speed=17.3x    frame=34633 fps=414 q=-0.0 size=N/A time=00:24:04.48 bitrate=N/A speed=17.3x    [Parsed_ssim_10 @ 0000017986b54500] SSIM Y:0.994817 (22.854168) U:0.993778 (22.060914) V:0.993893 (22.141673) All:0.994490 (22.588371)
[out#0/null @ 00000179fff12f00] video:14961KiB audio:272296KiB subtitle:0KiB other streams:0KiB global headers:0KiB muxing overhead: unknown
frame=34818 fps=415 q=-0.0 Lsize=N/A time=00:24:12.20 bitrate=N/A speed=17.3x    
